<svg xmlns="http://www.w3.org/2000/svg" viewBox="0 0 75.1 87.99"><defs><style>.cls-1{opacity:1;}.cls-2{fill:#f2f2f2;}</style></defs><title>Asset 9</title><g id="Layer_2" data-name="Layer 2"><g id="Layer_1-2" data-name="Layer 1"><g class="cls-1"><path class="cls-2" d="M36.74,41.9a20.3,20.3,0,0,0,14.82-6.13A20.3,20.3,0,0,0,57.69,21,20.25,20.25,0,0,0,51.55,6.14,20.23,20.23,0,0,0,36.74,0,20.23,20.23,0,0,0,21.93,6.14,20.25,20.25,0,0,0,15.79,21a20.27,20.27,0,0,0,6.14,14.82A20.26,20.26,0,0,0,36.74,41.9Z"/></g><g class="cls-1"><path class="cls-2" d="M74.92,67.89a47.84,47.84,0,0,0-.73-5.49,40.22,40.22,0,0,0-1.4-5.53,26.42,26.42,0,0,0-2.35-5.15,19.35,19.35,0,0,0-3.54-4.47,15.8,15.8,0,0,0-5.09-3.09A18.1,18.1,0,0,0,55.3,43c-.91,0-1.8.37-3.52,1.45l-3.67,2.28a21.48,21.48,0,0,1-4.75,2,19.2,19.2,0,0,1-11.62,0,21.48,21.48,0,0,1-4.75-2l-3.67-2.28C21.6,43.39,20.72,43,19.8,43a18,18,0,0,0-6.5,1.14,15.85,15.85,0,0,0-5.1,3.09,19.62,19.62,0,0,0-3.54,4.47,26.42,26.42,0,0,0-2.35,5.15A41.71,41.71,0,0,0,.91,62.4a50,50,0,0,0-.73,5.5C.06,69.56,0,71.29,0,73A14.18,14.18,0,0,0,4.44,84c2.91,2.68,6.76,4,11.44,4H59.23c4.68,0,8.52-1.35,11.43-4A14.18,14.18,0,0,0,75.1,73C75.1,71.28,75,69.55,74.92,67.89Z"/></g></g></g></svg>