<svg xmlns="http://www.w3.org/2000/svg" viewBox="0 0 268.45 175.09"><defs><style>.cls-1{fill:#4d4d4d;}.cls-2{opacity:0.6;}.cls-3{fill:#f2f2f2;}</style></defs><title>Asset 1</title><g id="Layer_2" data-name="Layer 2"><g id="Layer_1-2" data-name="Layer 1"><path class="cls-1" d="M261.8,41.54c-3.15-.38-6.68.17-8.82.18q-9.45,0-18.9.26c-22.84.53-45.57,1.49-68.42,1.49-12.13,0-18.19,0-21.38,0-38.5-.61-28.85-.34-56.83-.34C85.91,43,86.35,26,86.34,24.56c0-4.57,0-9.14-.06-13.71C86.25,8,87.2.94,83.58.08A4.31,4.31,0,0,0,80,1.29c-9.33,7.88-18.61,15.9-27.74,24C47.42,29.6,42.67,34,38.29,38.67c-6.38,6.87-11.83,14.48-18.36,21.22-6.76,7-13.95,13.84-19,22.2A8.18,8.18,0,0,0,0,85.84a7.5,7.5,0,0,0,.85,3.78c4.12,7.31,10,13.45,15.28,19.94,11.09,13.68,21.58,27.51,35.05,39.18C56.57,153.41,62,158,67.24,162.86c3.9,3.64,9.44,11.95,15.22,12.23,1.13,0,2.22-1.86,2.24-4.65.1-13.19-.25-28.2-.25-41.35,1.28-.08,4.7.07,6,0,19-1,12.32.45,31.32.45,44.38,0,88.76-.63,133.13-1.11l5.43-.05c1.81,0,3.74-.06,5.25-1.32,3.51-2.94,2.95-11.5,2.63-16-.65-9.27-4.44-17.83-4.32-27.21C264,73,265.89,61.1,268,50.59c.22-1.12.74-3.62-.28-5.63C266.57,42.74,264.31,41.84,261.8,41.54Z"/><g class="cls-2"><path class="cls-3" d="M254.26,46.83c-2.92-.33-6.21.15-8.19.15q-8.79,0-17.58.23c-21.24.46-42.37,1.3-63.62,1.3-11.28,0-16.92,0-19.89,0-35.79-.53-36.47-.48-62.5-.48a4.14,4.14,0,0,0-1.31.22c1.85-.62.62-15.76.6-17.45,0-2.66,1.14-20.93-2.13-21.25a4.89,4.89,0,0,0-3.52,1.63c-7.28,6.52-14,14.49-21,21.51-8,8-15.76,16.18-23,24.79-6.78,8-15.22,15.35-20.43,24.61a6.75,6.75,0,0,0-.85,3.25,6.15,6.15,0,0,0,.79,3.29c4.58,6.92,10.2,13,15.56,19.37,5.17,6.1,9.72,12.63,15.22,18.46,7,7.39,14.38,14.35,21.77,21.32,3.7,3.49,13.54,14,15.16,12.9.85-.6,1-2.65,1-3.59.1-11.45.23-23,.23-34.43,1.19-.07,2.41.11,3.62,0,17.64-.85,22.26.59,39.92.59,41.27,0,82.54-.55,123.8-1l5.05,0c1.68,0,3.48-.05,4.88-1.15,3.26-2.55,2.74-10,2.45-13.93-.61-8.06-4.13-15.49-4-23.64.13-9.39,1.86-19.72,3.8-28.85.21-1,.69-3.15-.26-4.89C258.7,47.87,256.6,47.09,254.26,46.83Z"/></g><g class="cls-2"><path class="cls-3" d="M244.13,54.21a69.34,69.34,0,0,0-7.43.12q-8,0-15.93.18c-19.25.36-38.41,1-57.67,1-10.22,0-15.33,0-18,0-32.45-.4-44.85.41-68.43.41a4.28,4.28,0,0,0-1.19.17c1.17-.33.22-24.84.24-27.21a4.43,4.43,0,0,0-.35-2.2,1.58,1.58,0,0,0-1.87-.86,2.46,2.46,0,0,0-.78.66c-8.16,9.31-16.84,18.31-25.6,27.06-8.41,9.61-16,19-22.86,28a4.82,4.82,0,0,0-.76,2.53,4.21,4.21,0,0,0,.71,2.55q6.87,9.75,14.91,19.9A429.58,429.58,0,0,0,71.73,143a1.36,1.36,0,0,0,1,.62c1,0,1.86-1.25,1.88-3.13.09-8.89.2-17.84.2-26.71,1.08-.05,2.19.09,3.29,0,16-.66,32-.32,48-.32,37.41,0,74.82-.43,112.22-.75l4.57,0a7.86,7.86,0,0,0,4.43-.89c3-2,2.49-7.75,2.22-10.81-.55-6.25-3.75-12-3.64-18.33.12-7.29,1.68-15.31,3.44-22.39a4.9,4.9,0,0,0-.24-3.8C248.16,55,246.25,54.42,244.13,54.21Z"/></g></g></g></svg>