<svg xmlns="http://www.w3.org/2000/svg" viewBox="0 0 106.27 96.95"><defs><style>.cls-1{opacity:1;}.cls-2{fill:#f2f2f2;}</style></defs><title>Asset 4</title><g id="Layer_2" data-name="Layer 2"><g id="Layer_1-2" data-name="Layer 1"><g class="cls-1"><path class="cls-2" d="M104.48,44.72,88.38,28.61V10A6.09,6.09,0,1,0,76.2,10v6.42l-12-12a16,16,0,0,0-22.15,0L1.78,44.72a6.09,6.09,0,0,0,8.62,8.61L50.67,13.06a3.59,3.59,0,0,1,4.92,0L95.87,53.33a6.09,6.09,0,1,0,8.61-8.61Z"/><path class="cls-2" d="M55.25,22.62a3,3,0,0,0-4.23,0L15.6,58a3,3,0,0,0-.88,2.12V86a11,11,0,0,0,11,11H43.23V69.79H63V97H80.57a11,11,0,0,0,11-11V60.15A3,3,0,0,0,90.67,58Z"/></g></g></g></svg>