<svg xmlns="http://www.w3.org/2000/svg" preserveAspectRatio="none" viewBox="0 0 1507.77 1555.11"><defs><style>.cls-1{opacity:0.7;}.cls-2{fill:#ed1e79;}</style></defs><title>Asset 2</title><g id="Layer_2" data-name="Layer 2"><g id="Layer_1-2" data-name="Layer 1"><g id="large-blob" class="cls-1"><g class="cls-1"><path class="cls-2" d="M1436.6,1146.75c-98.85,117.44-278,122.87-404.22,109.36-38.29-4.09-78.15-10-115.74,5.07-29.66,11.88-54.65,35.68-76.41,61-48.31,56.32-85.35,123.31-138.63,174.27-111.67,106.82-237.42,55.6-303.91-57.14-53.6-90.89-8.53-150.25-62.52-207.2-58.26-61.46-127.64-10.18-211.48-74.78-5.79-4.46-76.09-60.34-90.46-155.72-20.4-135.29,95.26-194,97.89-333.41,3-159.12-145.8-181-129.94-300.43,13.7-103.1,120.59-181.18,201.51-224.93,92.5-50,237-106.75,307.89-11C553.2,189.43,577.19,258,666.1,227c40.85-14.27,78.29-47.88,103.57-85.46,27.59-41,41.25-92.52,83.63-121,67.53-45.42,154.91-6.9,247.1,33.74,85.1,37.51,307.08,135.36,307.06,300.3,0,73.58-49.48,127.11-66.45,195.89-7.25,29.4-5.71,61.87,10.69,84.19,11.67,15.89,29.42,25,45.33,36.07C1522.77,757.88,1548.91,1013.3,1436.6,1146.75Z"/></g><g class="cls-1"><path class="cls-2" d="M1279.93,1033.19c-69.81,83-196.32,86.78-285.48,77.24-27-2.9-55.19-7.06-81.74,3.58-21,8.38-38.59,25.2-54,43.12-34.12,39.77-60.28,87.08-97.91,123.07-78.86,75.44-167.67,39.27-214.63-40.36-37.85-64.18-6-106.11-44.15-146.33-41.15-43.4-90.15-7.18-149.36-52.81-4.09-3.15-53.74-42.62-63.89-110-14.4-95.55,67.28-137,69.14-235.47,2.12-112.38-103-127.87-91.77-212.18,9.68-72.81,85.17-127.95,142.31-158.85,65.33-35.33,167.4-75.39,217.45-7.79,30.1,40.66,47,89.1,109.83,67.17,28.85-10.07,55.29-33.81,73.14-60.35,19.49-29,29.14-65.34,59.07-85.47,47.69-32.08,109.4-4.87,174.51,23.83,60.1,26.49,216.87,95.6,216.86,212.08,0,52-34.94,89.77-46.93,138.35-5.12,20.76-4,43.7,7.55,59.46,8.24,11.22,20.78,17.68,32,25.47C1340.79,758.56,1359.25,938.94,1279.93,1033.19Z"/></g><g class="cls-1"><path class="cls-2" d="M1126,1016.26c-47.66,56.63-134,59.24-194.89,52.73-18.45-2-37.67-4.81-55.8,2.44-14.3,5.73-26.34,17.21-36.84,29.44-23.29,27.15-41.15,59.45-66.84,84-53.84,51.5-114.46,26.81-146.52-27.55-25.84-43.82-4.11-72.44-30.14-99.9-28.09-29.63-61.54-4.9-102-36.05-2.79-2.15-36.68-29.09-43.61-75.08-9.83-65.23,45.93-93.53,47.2-160.75,1.45-76.71-70.3-87.29-62.65-144.85C440.5,591,492,553.36,531.05,532.27c44.6-24.12,114.28-51.47,148.45-5.32,20.55,27.76,32.11,60.83,75,45.86,19.69-6.88,37.74-23.09,49.93-41.2,13.31-19.78,19.89-44.61,40.32-58.35,32.56-21.9,74.69-3.33,119.14,16.26,41,18.09,148.05,65.27,148.05,144.79,0,35.48-23.86,61.29-32,94.45-3.5,14.17-2.76,29.83,5.15,40.59,5.63,7.66,14.18,12.07,21.85,17.39C1167.51,828.78,1180.11,951.92,1126,1016.26Z"/></g><g class="cls-1"><path class="cls-2" d="M1017.17,978.63c-29.56,35.13-83.13,36.75-120.89,32.71-11.45-1.22-23.37-3-34.61,1.52-8.87,3.55-16.34,10.67-22.85,18.26-14.45,16.84-25.52,36.87-41.46,52.11-33.39,32-71,16.63-90.88-17.09-16-27.18-2.55-44.93-18.7-62-17.42-18.38-38.17-3-63.25-22.36-1.73-1.34-22.75-18.05-27-46.57-6.1-40.46,28.49-58,29.28-99.71.89-47.59-43.61-54.15-38.86-89.85,4.09-30.83,36.06-54.18,60.26-67.27,27.66-14.95,70.88-31.92,92.08-3.29,12.74,17.21,19.92,37.73,46.51,28.44,12.21-4.26,23.41-14.32,31-25.55,8.25-12.27,12.34-27.67,25-36.2,20.19-13.58,46.33-2.06,73.9,10.09,25.44,11.22,91.83,40.48,91.83,89.81,0,22-14.8,38-19.88,58.58-2.17,8.79-1.71,18.51,3.2,25.18,3.49,4.75,8.8,7.49,13.55,10.79C1042.94,862.34,1050.76,938.73,1017.17,978.63Z"/></g></g></g></g></svg>