<svg xmlns="http://www.w3.org/2000/svg" viewBox="0 0 1153.58 1126.49"><defs><style>.cls-1{opacity:0.4;}.cls-2{fill:#ed1e79;}.cls-3{opacity:0.6;}.cls-4{opacity:0.7;}</style></defs><title>Asset 8</title><g id="Layer_2" data-name="Layer 2"><g id="Layer_1-2" data-name="Layer 1"><g id="med-blob"><g class="cls-1"><path class="cls-2" d="M982.84,1106c-98.9,50.9-229.64-3-317.75-53.16-26.71-15.21-54.15-32.2-84.84-33.71-24.22-1.18-47.84,7.54-69.49,18.4-48.08,24.12-90.51,59.37-140.93,78.11-105.67,39.28-184.6-37.3-206.33-138.14C146,896.2,192.44,868.9,166.72,811.39c-27.76-62-89.89-48.28-135.4-120.79-3.14-5-40.9-67-29-138.83C19.17,449.89,116.49,445.79,151,348.43c39.35-111.12-63.08-174.5-23.73-253.49,34-68.22,129.5-88.78,198.21-93.54C404-4,521.71,2.54,550.57,92.8c17.36,54.28,18.68,110.33,90.2,117.1,32.86,3.1,67.77-8.52,94.83-26.84,29.52-20,51.43-51.89,88.72-58.32,59.43-10.24,113.59,45,170.74,103.36,52.74,53.83,190.34,194.26,151.8,310.44-17.2,51.84-65.47,73.61-93.8,116.6-12.11,18.37-18.59,41.74-12,62.75,4.73,15,15.42,27.11,24.34,40C1136,859.82,1095.2,1048.16,982.84,1106Z"/></g><g class="cls-3"><g class="cls-1"><path class="cls-2" d="M896.12,975.54c-69.84,35.94-162.18-2.11-224.4-37.55-18.87-10.74-38.25-22.74-59.92-23.8-17.11-.84-33.79,5.32-49.08,13-34,17-63.92,41.93-99.53,55.16-74.63,27.74-130.38-26.34-145.72-97.56-12.36-57.41,20.44-76.69,2.27-117.3-19.6-43.83-63.48-34.1-95.62-85.31-2.22-3.54-28.89-47.33-20.49-98,11.91-72,80.64-74.85,105-143.61,27.78-78.47-44.56-123.24-16.76-179,24-48.18,91.45-62.7,140-66.06,55.47-3.85,138.61.81,159,64.55,12.26,38.34,13.19,77.92,63.7,82.7,23.21,2.19,47.87-6,67-19,20.85-14.13,36.32-36.64,62.66-41.18,42-7.24,80.22,31.8,120.58,73,37.25,38,134.43,137.2,107.21,219.25-12.15,36.61-46.24,52-66.25,82.34-8.55,13-13.12,29.49-8.43,44.32,3.33,10.56,10.88,19.15,17.18,28.26C1004.27,801.68,975.47,934.69,896.12,975.54Z"/></g></g><g class="cls-4"><g class="cls-1"><path class="cls-2" d="M788.78,914c-47.68,24.54-110.72-1.44-153.19-25.63-12.89-7.34-26.12-15.53-40.91-16.25-11.68-.58-23.06,3.63-33.51,8.87-23.18,11.62-43.63,28.62-67.94,37.66-51,18.93-89-18-99.48-66.61-8.44-39.19,13.95-52.35,1.55-80.08C381.92,742.06,352,748.7,330,713.74c-1.52-2.41-19.72-32.31-14-66.93,8.13-49.12,55.05-51.1,71.68-98,19-53.57-30.42-84.13-11.45-122.22,16.39-32.88,62.44-42.8,95.56-45.1,37.88-2.62,94.63.56,108.55,44.08,8.37,26.17,9,53.19,43.49,56.45,15.84,1.5,32.67-4.1,45.72-12.94,14.23-9.65,24.8-25,42.78-28.12,28.65-4.94,54.76,21.72,82.31,49.83,25.43,26,91.77,93.67,73.19,149.68-8.29,25-31.56,35.49-45.22,56.22-5.84,8.85-9,20.12-5.76,30.25,2.28,7.21,7.43,13.07,11.73,19.29C862.61,795.33,843,886.14,788.78,914Z"/></g></g><g class="cls-1"><path class="cls-2" d="M718.93,852.47c-29.58,15.22-68.68-.89-95-15.9-8-4.55-16.2-9.63-25.38-10.08-7.24-.35-14.3,2.26-20.78,5.5-14.38,7.22-27.07,17.76-42.15,23.36C504,867.1,480.4,844.2,473.9,814c-5.24-24.31,8.65-32.47,1-49.67-8.3-18.56-26.88-14.44-40.49-36.13-.94-1.49-12.23-20-8.68-41.52,5.05-30.46,34.15-31.69,44.46-60.8,11.77-33.24-18.87-52.19-7.1-75.81,10.17-20.4,38.73-26.55,59.28-28,23.49-1.62,58.69.35,67.33,27.34,5.19,16.23,5.58,33,27,35,9.83.93,20.27-2.55,28.36-8,8.83-6,15.38-15.52,26.53-17.44,17.77-3.06,34,13.47,51.06,30.91C738.36,606,779.51,648,768,682.77c-5.14,15.5-19.58,22-28.05,34.87-3.62,5.49-5.56,12.48-3.57,18.76,1.41,4.48,4.61,8.11,7.28,12C764.73,778.85,752.53,835.18,718.93,852.47Z"/></g></g></g></g></svg>