<svg xmlns="http://www.w3.org/2000/svg" viewBox="0 0 95.62 95.62"><defs><style>.cls-1{fill:#f2f2f2;opacity:1;}</style></defs><title>Asset 7</title><g id="Layer_2" data-name="Layer 2"><g id="Layer_1-2" data-name="Layer 1"><path class="cls-1" d="M47.81,0A47.81,47.81,0,1,0,95.62,47.81,47.82,47.82,0,0,0,47.81,0ZM36.24,69a3.33,3.33,0,0,1-4.68.62L6.15,50.19A3.32,3.32,0,0,1,4.31,47.3a3.41,3.41,0,0,1,1.73-3L30.62,26a3.34,3.34,0,1,1,4,5.36L13.25,47.21,35.61,64.32A3.33,3.33,0,0,1,36.24,69ZM57.13,23.29,45,73.89a3.35,3.35,0,0,1-3.24,2.56,3.11,3.11,0,0,1-.79-.1,3.32,3.32,0,0,1-2.46-4l12.15-50.6a3.34,3.34,0,0,1,6.49,1.56Zm32.5,26.78L64.06,69.62A3.34,3.34,0,1,1,60,64.32L82.37,47.21,61,31.33A3.34,3.34,0,0,1,65,26L89.42,44.13l.07,0a3.37,3.37,0,0,1,1.82,3.06A3.4,3.4,0,0,1,89.63,50.07Z"/></g></g></svg>