<svg xmlns="http://www.w3.org/2000/svg" viewBox="0 0 649.93 644.5"><defs><style>.cls-1{opacity:0.4;}.cls-2{fill:#f2f2f2;}.cls-3{opacity:0.4;}</style></defs><title>Asset 3</title><g id="Layer_2" data-name="Layer 2"><g id="Layer_1-2" data-name="Layer 1"><g class="cls-1"><path class="cls-2" d="M57.41,25.36C110.17-5.76,187.84,22.31,241.1,49.15c16.15,8.14,32.82,17.28,50.33,17.51,13.81.17,26.63-5.3,38.2-11.95,25.69-14.77,47.44-35.79,74.81-47.53C461.8-17.44,511.58,24.67,530.51,81.82c15.25,46.07-9.3,62.62,9,94.94,19.81,34.88,54.14,25.72,84.71,66.2,2.11,2.8,27.58,37.44,25.54,78.7-2.89,58.54-57.81,62.9-71,119.23-15,64.28,47.21,98.37,30.07,144.3-14.81,39.67-67.63,53.39-106.29,57.53-44.19,4.74-111.38,3.41-133.67-47.55-13.4-30.65-17.82-62.64-58.82-65-18.84-1.1-37.88,6.26-52,17.29-15.44,12-25.78,30.7-46.51,35.15-33,7.08-67.37-23.38-103.59-55.51-33.45-29.66-120.68-107-106.43-174.2,6.36-30,32.31-43.39,45.56-68.53,5.67-10.75,7.81-24.23,2.66-36.09-3.66-8.45-10.51-15.17-16.42-22.36C-13.31,169.15-2.52,60.72,57.41,25.36Z"/></g><g class="cls-3"><path class="cls-2" d="M115.14,98.09c37.26-22,92.12-2.16,129.73,16.8,11.4,5.75,23.18,12.2,35.54,12.36,9.75.12,18.81-3.74,27-8.44,18.14-10.43,33.51-25.27,52.84-33.57,40.51-17.38,75.66,12.36,89,52.72,10.77,32.54-6.57,44.23,6.39,67,14,24.63,38.24,18.17,59.82,46.75,1.49,2,19.49,26.44,18,55.59-2,41.34-40.84,44.42-50.14,84.2C472.76,437,516.72,461,504.61,493.46c-10.46,28-47.76,37.71-75.06,40.63-31.21,3.34-78.67,2.4-94.4-33.58-9.47-21.65-12.59-44.24-41.55-45.92-13.3-.78-26.75,4.42-36.74,12.21-10.9,8.5-18.2,21.68-32.84,24.82-23.32,5-47.58-16.51-73.16-39.2-23.62-20.95-85.23-75.59-75.17-123,4.49-21.17,22.82-30.65,32.18-48.41,4-7.59,5.51-17.11,1.88-25.49-2.58-6-7.43-10.71-11.6-15.78C65.19,199.63,72.81,123.06,115.14,98.09Z"/></g><g class="cls-3"><path class="cls-2" d="M180.05,131c25.43-15,62.88-1.46,88.56,11.48,7.78,3.92,15.82,8.33,24.26,8.43,6.66.09,12.84-2.55,18.42-5.76,12.39-7.12,22.88-17.25,36.07-22.91,27.65-11.87,51.66,8.43,60.78,36,7.36,22.21-4.48,30.19,4.37,45.77,9.55,16.81,26.1,12.4,40.83,31.92,1,1.34,13.3,18.05,12.32,37.94-1.39,28.23-27.87,30.33-34.23,57.48-7.25,31,22.77,47.43,14.5,69.58-7.14,19.12-32.61,25.74-51.24,27.74-21.31,2.28-53.71,1.64-64.45-22.93-6.46-14.78-8.59-30.2-28.36-31.35-9.08-.53-18.27,3-25.08,8.34-7.45,5.8-12.43,14.8-22.42,16.94-15.93,3.42-32.49-11.27-49.95-26.76-16.13-14.3-58.18-51.6-51.31-84,3.06-14.45,15.57-20.93,22-33.05,2.73-5.18,3.77-11.68,1.29-17.4-1.77-4.07-5.07-7.31-7.92-10.78C146,200.33,151.15,148.05,180.05,131Z"/></g><g class="cls-3"><path class="cls-2" d="M223.69,164.72c15.78-9.31,39-.91,54.94,7.11,4.82,2.44,9.81,5.17,15.05,5.24,4.13.05,8-1.59,11.42-3.58,7.68-4.41,14.19-10.7,22.37-14.21,17.16-7.36,32,5.23,37.7,22.32,4.57,13.78-2.78,18.73,2.71,28.4,5.93,10.42,16.19,7.69,25.33,19.79.63.84,8.25,11.2,7.64,23.54-.86,17.51-17.29,18.81-21.23,35.65-4.49,19.23,14.12,29.42,9,43.16-4.42,11.86-20.22,16-31.78,17.2-13.22,1.42-33.31,1-40-14.22-4-9.16-5.32-18.73-17.59-19.44a23.74,23.74,0,0,0-15.55,5.17c-4.62,3.6-7.71,9.18-13.91,10.51-9.88,2.12-20.15-7-31-16.6-10-8.87-36.09-32-31.83-52.09,1.9-9,9.66-13,13.62-20.5a12.6,12.6,0,0,0,.8-10.79c-1.09-2.53-3.14-4.54-4.91-6.69C202.54,207.72,205.77,175.29,223.69,164.72Z"/></g></g></g></svg>